<svg width="118.66402893066406px" height="120.8px" xmlns="http://www.w3.org/2000/svg" viewBox="190.66798553466796 14.600000000000001 118.66402893066406 120.8" style="background: rgba(0, 0, 0, 0);" preserveAspectRatio="xMidYMid"><defs><linearGradient id="editing-outline-gradient" x1="-0.41354545764260087" x2="1.4135454576426008" y1="0.09326335692419985" y2="0.9067366430758002"><stop offset="0" stop-color="#ee4208"></stop><stop offset="1" stop-color="#4139ff"></stop></linearGradient><filter id="editing-outline" x="-100%" y="-100%" width="300%" height="300%"><feMorphology in="SourceGraphic" operator="dilate" radius="1" result="outline"></feMorphology><feComposite operator="out" in="outline" in2="SourceAlpha"></feComposite></filter></defs><g filter="url(#editing-outline)"><g transform="translate(213.95479798316956, 97.39999961853027)"><path d="M28.42-9.86L28.42-9.86L28.42-9.86Q29.63-8.32 29.63-5.82L29.63-5.82L29.63-5.82Q29.63-2.37 27.07-0.54L27.07-0.54L27.07-0.54Q24.51 1.28 20.48 1.28L20.48 1.28L20.48 1.28Q18.18 1.28 14.66 0.77L14.66 0.77L14.66 0.77Q7.74-0.32 5.63-0.32L5.63-0.32L5.63-0.32Q3.52-0.32 2.69-0.22L2.69-0.22L2.69-0.22Q1.86-0.13 0.51 0L0.51 0L8.38-42.24L35.97-42.24L35.97-42.24Q35.97-38.34 34.08-36.29L34.08-36.29L34.08-36.29Q32.19-34.24 28.48-34.24L28.48-34.24L28.48-34.24Q24.77-34.24 20.99-35.97L20.99-35.97L19.01-24.77L30.40-24.77L30.40-24.77Q30.40-21.38 28.74-19.49L28.74-19.49L28.74-19.49Q27.07-17.60 24.29-17.60L24.29-17.60L24.29-17.60Q21.50-17.60 19.78-18.24L19.78-18.24L19.78-18.24Q18.05-18.88 17.86-19.07L17.86-19.07L15.55-6.98L15.55-6.98Q17.09-6.78 19.97-6.78L19.97-6.78L19.97-6.78Q24.90-6.78 28.42-9.86ZM60.48-29.57L60.48-29.57L60.48-29.57Q61.44-31.49 61.44-33.28L61.44-33.28L61.44-33.28Q61.44-35.07 61.25-36.06L61.25-36.06L61.25-36.06Q61.06-37.06 60.61-37.82L60.61-37.82L60.61-37.82Q59.65-39.49 57.73-39.49L57.73-39.49L57.73-39.49Q55.36-39.49 53.44-37.76L53.44-37.76L53.44-37.76Q51.39-35.97 51.39-33.15L51.39-33.15L51.39-33.15Q51.39-31.36 52.64-29.98L52.64-29.98L52.64-29.98Q53.89-28.61 55.81-27.33L55.81-27.33L55.81-27.33Q57.73-26.05 59.90-24.77L59.90-24.77L59.90-24.77Q62.08-23.49 64-21.95L64-21.95L64-21.95Q68.42-18.43 68.42-13.70L68.42-13.70L68.42-13.70Q68.42-10.50 66.72-7.78L66.72-7.78L66.72-7.78Q65.02-5.06 62.21-3.07L62.21-3.07L62.21-3.07Q56.06 1.28 47.94 1.28L47.94 1.28L47.94 1.28Q41.34 1.28 37.95-0.86L37.95-0.86L37.95-0.86Q34.56-3.01 34.56-6.27L34.56-6.27L34.56-6.27Q34.56-12.10 39.10-13.57L39.10-13.57L39.10-13.57Q40.38-14.02 42.34-14.02L42.34-14.02L42.34-14.02Q44.29-14.02 46.53-13.18L46.53-13.18L46.53-13.18Q45.50-10.56 45.50-8.19L45.50-8.19L45.50-8.19Q45.50-3.07 49.15-3.07L49.15-3.07L49.15-3.07Q51.52-3.07 53.47-4.80L53.47-4.80L53.47-4.80Q55.42-6.53 55.42-8.48L55.42-8.48L55.42-8.48Q55.42-10.43 54.18-11.84L54.18-11.84L54.18-11.84Q52.93-13.25 51.07-14.37L51.07-14.37L51.07-14.37Q49.22-15.49 47.07-16.58L47.07-16.58L47.07-16.58Q44.93-17.66 43.07-19.20L43.07-19.20L43.07-19.20Q38.72-22.72 38.72-28.35L38.72-28.35L38.72-28.35Q38.72-32 40.51-34.85L40.51-34.85L40.51-34.85Q42.30-37.70 45.18-39.62L45.18-39.62L45.18-39.62Q50.94-43.52 58.02-43.52L58.02-43.52L58.02-43.52Q65.09-43.52 68.51-41.41L68.51-41.41L68.51-41.41Q71.94-39.30 71.94-35.71L71.94-35.71L71.94-35.71Q71.94-32.58 69.50-30.59L69.50-30.59L69.50-30.59Q67.39-28.93 64.83-28.93L64.83-28.93L64.83-28.93Q62.27-28.93 60.48-29.57Z" fill="url(#editing-outline-gradient)"></path></g></g><style>text {
  font-size: 64px;
  font-family: Arial Black;
  dominant-baseline: central;
  text-anchor: middle;
}</style></svg>